<svg width="51" height="51" viewBox="0 0 51 51" fill="none" xmlns="http://www.w3.org/2000/svg">
<path d="M19.9164 35.8493H26.6879V39.8325H19.9164V35.8493ZM12.4477 35.3516C11.0726 35.3516 9.95821 36.466 9.95821 37.8411C9.95821 39.2157 11.0726 40.3305 12.4477 40.3305C13.8227 40.3305 14.9371 39.2157 14.9371 37.8411C14.9371 36.466 13.8227 35.3516 12.4477 35.3516ZM40.0317 23.2024H19.9164V27.1856H40.0317V23.2024ZM12.4477 22.7047C11.0726 22.7047 9.95821 23.8191 9.95821 25.1942C9.95821 26.5692 11.0726 27.6836 12.4477 27.6836C13.8227 27.6836 14.9371 26.5692 14.9371 25.1942C14.9371 23.8191 13.8227 22.7047 12.4477 22.7047ZM40.0317 11.2527H19.9164V15.236H40.0317V11.2527ZM12.4477 10.7547C11.0726 10.7547 9.95821 11.8695 9.95821 13.2442C9.95821 14.6192 11.0726 15.734 12.4477 15.734C13.8227 15.734 14.9371 14.6192 14.9371 13.2442C14.9371 11.8695 13.8227 10.7547 12.4477 10.7547ZM3.98321 45.011V5.97501C3.98321 4.87658 4.87658 3.98321 5.97501 3.98321H45.011C46.109 3.98321 47.0024 4.87658 47.0024 5.97501V28.4805H50.9856V5.97501C50.9856 2.6805 48.3055 0 45.011 0H5.97501C2.6805 0 0 2.6805 0 5.97501V45.011C0 48.3055 2.6805 50.9856 5.97501 50.9856H28.9782V47.0024H5.97501C4.87658 47.0024 3.98321 46.109 3.98321 45.011ZM48.1833 51L44.2168 47.0335C42.8748 47.8355 41.3072 48.2969 39.6336 48.2969C34.6917 48.2969 30.6711 44.2764 30.6711 39.3348C30.6711 34.3929 34.6917 30.3723 39.6336 30.3723C44.5752 30.3723 48.5958 34.3929 48.5958 39.3348C48.5958 41.1632 48.0448 42.8651 47.1012 44.2845L51 48.1833L48.1833 51ZM39.6336 44.3137C42.3791 44.3137 44.6125 42.0803 44.6125 39.3348C44.6125 36.5893 42.3791 34.3555 39.6336 34.3555C36.8882 34.3555 34.6543 36.5893 34.6543 39.3348C34.6543 42.0803 36.8882 44.3137 39.6336 44.3137Z" fill="#504C4C" fill-opacity="0.7"/>
</svg>
